<svg width="64" height="28" viewBox="0 0 64 28" fill="none" xmlns="http://www.w3.org/2000/svg">
<path d="M7.88029 0.553955C7.88029 0.553955 6.84305 0.998607 6.32511 2.84656C5.80718 4.69316 0 22.1066 0 22.1066L6.87876 22.2086C6.87876 22.2086 8.95325 21.832 9.60994 19.882C10.2666 17.9321 11.6487 13.7929 11.6487 13.7929L7.88029 0.553955Z" fill="#B30023"/>
<path d="M29.8985 0L28.5327 0.0456096C28.5327 0.0456096 27.0309 0.32065 25.8916 2.2017C25.2081 4.22235 21.8848 14.3173 21.8848 14.3173L25.7541 27.8993L27.5296 27.7155C27.5296 27.7155 28.3035 27.3492 28.7134 26.4315C29.1232 25.5138 33.1301 14.0422 33.1301 14.0422L29.8985 0Z" fill="#B30023"/>
<path fill-rule="evenodd" clip-rule="evenodd" d="M8.52194 0.072687C8.14571 0.164265 7.78488 0.381161 7.38261 0.757501C6.99449 1.12055 6.89048 1.31124 7.15897 1.1675C7.28389 1.10065 7.33216 1.11791 7.42342 1.26196C7.48475 1.3589 7.81884 2.35592 8.16569 3.47756C10.0601 9.60357 15.0801 25.0993 15.3121 25.5375C15.5985 26.0783 16.5887 27.0635 17.1097 27.326C18.2349 27.8931 17.9499 27.8634 22.536 27.8912C26.9346 27.9179 27.251 27.8969 27.8687 27.5361C28.1777 27.3556 28.2402 27.1785 27.9568 27.2862C27.4306 27.4863 26.87 27.3144 26.6472 26.8847C26.5734 26.7424 24.8321 21.3961 22.7776 15.0039C19.9484 6.20111 18.9693 3.2497 18.7419 2.83752C18.1037 1.68129 17.2426 0.84527 16.1341 0.305519L15.5066 0L12.1308 0.0079293C10.2742 0.0123605 8.6502 0.0414354 8.52194 0.072687Z" fill="#FF4545"/>
<path fill-rule="evenodd" clip-rule="evenodd" d="M49.4421 0.0663792C49.0226 0.112658 48.3658 0.427517 47.9824 0.766165C47.3715 1.30577 46.8213 2.22635 46.4512 3.32836C46.2072 4.05453 38.5269 27.942 38.5269 27.9745C38.5269 28.0221 46.2379 27.9972 46.7449 27.9479C47.7842 27.8467 48.4999 27.4922 49.3028 26.6808C50.0612 25.9142 50.1543 25.7248 50.949 23.3314C54.0036 14.1317 57.055 4.78574 57.4571 3.39759L57.5884 2.94483L57.4486 2.65615C57.2871 2.32249 56.0672 1.06591 55.2575 0.399262L54.7726 0L52.2714 0.0151145C50.8957 0.023373 49.6225 0.0464862 49.4421 0.0663792Z" fill="#B30023"/>
<path fill-rule="evenodd" clip-rule="evenodd" d="M28.3087 0.0652555C27.3832 0.26817 26.5311 0.933215 26.0538 1.82545C25.8609 2.18601 25.8786 2.26127 26.086 1.96258C26.2843 1.67685 26.7516 1.25644 26.9168 1.21503C27.103 1.16842 27.3316 1.29967 27.432 1.51087C27.4778 1.60732 27.6821 2.22357 27.886 2.88033C28.7016 5.50843 30.3061 10.5219 33.1103 19.2044C34.9386 24.8654 35.0194 25.0874 35.5675 25.954C36.0416 26.7037 36.7531 27.3943 37.357 27.691C38.0118 28.0128 38.0022 28.0123 42.6445 27.9932C46.7809 27.9764 46.8588 27.9741 47.2818 27.8619C47.5184 27.7991 47.869 27.6687 48.0609 27.5722L48.4098 27.3966L47.9154 27.3708C47.3374 27.3406 47.0057 27.2065 46.76 26.9035C46.6374 26.7524 46.2345 25.5835 44.7315 21.0196C43.7 17.8871 41.998 12.6641 40.9493 9.41286C39.1748 3.91141 39.0191 3.45642 38.7045 2.85205C38.2743 2.0257 37.8876 1.49087 37.3553 0.985714C36.897 0.550927 36.5301 0.310461 36.0469 0.128484C35.7385 0.0123394 35.7247 0.0118707 32.1892 0.00218333C29.3148 -0.00573325 28.578 0.00624571 28.3087 0.0652555Z" fill="#FF4545"/>
<path fill-rule="evenodd" clip-rule="evenodd" d="M48.9566 0.149608C48.2579 0.327338 47.3502 1.35971 47.2998 1.56115C47.4511 1.44066 47.5267 1.41007 47.5267 1.41007C47.7789 1.33453 47.9886 1.38683 48.1575 1.72535C48.2458 1.90233 49.7072 6.17466 51.4052 11.2197C53.8325 18.432 54.5702 20.4942 54.8567 20.869C55.0805 21.1622 55.5052 21.4928 55.9584 21.7269L56.6958 22.1079H60.2679H63.84L63.7593 21.8447C63.7149 21.6999 62.2568 17.16 60.519 11.7558C56.9969 0.802553 57.1232 1.10867 55.8162 0.362266L55.1819 0L52.2662 0.0119309C50.5447 0.0189493 49.443 -0.0251799 48.9566 0.149608Z" fill="#FF4545"/>
</svg>
